# xmcd CD database file
#
# Track frame offsets:
#	150
#	20952
#	33311
#	51551
#	68899
#	83857
#	103926
#	119869
#	139133
#	154174
#	172684
#	187966
#	206941
#
# Disc length: 3003 seconds
#
# Revision: 0
# Processed by: cddbd v1.5.2PL0 Copyright (c) Steve Scherf et al.
# Submitted via: CDex 1.51
#
DISCID=c40bb90d
DTITLE=Norine Braun - Evolution of the Blood Star
DYEAR=2007
DGENRE=Jazz
TTITLE0=Be Brave (Blaxcot Remix)
TTITLE1=Stone and Feather
TTITLE2=Crystallize
TTITLE3=Conformity 451
TTITLE4=Rock and a Hard Place
TTITLE5=Q (Evolution of the Clood Star)
TTITLE6=Skylight
TTITLE7=Alberta
TTITLE8=Doesn't Matter Anyway
TTITLE9=In Space
TTITLE10=Lonesome Side of Truth
TTITLE11=If I Could Be the One
TTITLE12=Be Brave (Dub - Trip Hop Remix)
EXTD=YEAR: 2007
EXTT0=
EXTT1=
EXTT2=
EXTT3=
EXTT4=
EXTT5=
EXTT6=
EXTT7=
EXTT8=
EXTT9=
EXTT10=
EXTT11=
EXTT12=
PLAYORDER=
